# xmcd
#
# Track frame offsets: 
#        150
#        25805
#        46668
#        67268
#        96830
#        120604
#        136436
#        162632
#        179146
#        201224
#        218496
#        236792
#        252822
#        268914
#
# Disc length: 3895 seconds
#
# Revision: 0
# Processed by: cddbd v1.5.2PL0 Copyright (c) Steve Scherf et al.
# Submitted via: ExactAudioCopy v1.0b4
#
DISCID=d60f350e
DTITLE=Robin Barrett and Coyote Kings - Howl
DYEAR=2015
DGENRE=Blues, Blues Rock
TTITLE0=Howl
TTITLE1=Good Thing
TTITLE2=That's Rude
TTITLE3=Waiting to Be Free
TTITLE4=All Eased Up
TTITLE5=Lowdown
TTITLE6=Which Way to Go
TTITLE7=Jackhammer Slow Jammer
TTITLE8=Bomb Inna Backseat
TTITLE9=Party
TTITLE10=Dark Dark Night
TTITLE11=Crazy in the Head
TTITLE12=Naughty Little Girl
TTITLE13=Crack the Whip
EXTD=
EXTT0=
EXTT1=
EXTT2=
EXTT3=
EXTT4=
EXTT5=
EXTT6=
EXTT7=
EXTT8=
EXTT9=
EXTT10=
EXTT11=
EXTT12=
EXTT13=
PLAYORDER=
